 http://img528.imageshack.us/img528/5740/nutcracker.jpg


Verenigd Koninkrijk / Hongarije
Fantasy
110 minuten

geregisseerd door Andrey Konchalovskiy
met Elle Fanning, Charlie Rowe en Nathan Lane

Het meisje Mary (Elle Fanning) krijgt van haar oom (Nathan Lane) een op het oog niet zo bijzonder kerstcadeau: een notenkrakerpop. Maar als ze 's nachts wakker wordt blijkt dat de pop tot leven is gekomen en hij trekt Mary mee in een sprookjesachtig avontuur.



Vertaald door Simply Release Toppers:
Jack The Ripper en Kevinnz





Screenshots:
 
http://img6.imageshack.us/img6/350/screenshot1fo.jpg
 
http://img408.imageshack.us/img408/1879/screenshot2os.jpg
 
http://img832.imageshack.us/img832/8532/screenshot3zj.jpg
 
http://img411.imageshack.us/img411/9587/screenshot4fm.jpg




INFO;


ormat                                   : AVI
Format/Info                              : Audio Video Interleave
File size                                : 702 MiB
Duration                                 : 1h 48mn
Overall bit rate mode                    : Variable
Overall bit rate                         : 908 Kbps


Video
ID                                       : 0
Format                                   : MPEG-4 Visual
Format profile                           : Advanced Simple@L5
Format settings, BVOP                    : 1
Format settings, QPel                    : No
Format settings, GMC                     : No warppoints
Format settings, Matrix                  : Custom
Codec ID                                 : XVID
Codec ID/Hint                            : XviD
Duration                                 : 1h 48mn
Bit rate                                 : 781 Kbps
Width                                    : 608 pixels
Height                                   : 256 pixels
Display aspect ratio                     : 2.40:1
Frame rate                               : 23.976 fps
Color space                              : YUV
Chroma subsampling                       : 4:2:0
Bit depth                                : 8 bits
Scan type                                : Progressive
Compression mode                         : Lossy
Bits/(Pixel*Frame)                       : 0.209
Stream size                              : 604 MiB (86%)
Writing library                          : XviD 64

Audio
ID                                       : 1
Format                                   : MPEG Audio
Format version                           : Version 1
Format profile                           : Layer 3
Mode                                     : Joint stereo
Mode extension                           : MS Stereo
Codec ID                                 : 55
Codec ID/Hint                            : MP3
Duration                                 : 1h 48mn
Bit rate mode                            : Variable
Bit rate                                 : 114 Kbps
Nominal bit rate                         : 128 Kbps
Channel(s)                               : 2 channels
Sampling rate                            : 48.0 KHz
Compression mode                         : Lossy
Stream size                              : 88.5 MiB (13%)
Alignment                                : Aligned on interleaves
Interleave, duration                     : 24 ms (0.58 video frame)
Interleave, preload duration             : 160 ms



 
http://www.imdb.com/title/tt1041804/ 
http://www.moviemeter.nl/film/46867




Deze film wordt u aangeboden door het DutchReleaseTeam.
Voor de reviews van de nieuwste films, muziek, series, games etc
ga dan eens naar http://www.hetmultimediacafe.be

DutchReleaseteam = Hardcoded Dutch Subs